<svg xmlns="http://www.w3.org/2000/svg" xmlns:xlink="http://www.w3.org/1999/xlink" width="1080" zoomAndPan="magnify" viewBox="0 0 810 809.999993" height="1080" preserveAspectRatio="xMidYMid meet" version="1.0"><defs><g/></defs><g fill="#ffffff" fill-opacity="1"><g transform="translate(232.180451, 497.796863)"><g><path d="M 79.234375 -116.140625 C 74.046875 -110.722656 70.773438 -104.398438 69.421875 -97.171875 C 68.066406 -89.953125 68.289062 -82.617188 70.09375 -75.171875 C 71.894531 -67.722656 74.941406 -60.78125 79.234375 -54.34375 C 83.523438 -47.914062 88.71875 -42.613281 94.8125 -38.4375 C 100.90625 -34.257812 107.566406 -32.054688 114.796875 -31.828125 C 114.335938 -31.828125 113.429688 -31.148438 112.078125 -29.796875 C 110.722656 -28.441406 109.820312 -27.539062 109.375 -27.09375 C 107.113281 -25.0625 104.796875 -23.082031 102.421875 -21.15625 C 100.054688 -19.238281 97.75 -17.378906 95.5 -15.578125 C 94.363281 -14.671875 92.5 -12.972656 89.90625 -10.484375 C 87.3125 -8.003906 84.660156 -5.632812 81.953125 -3.375 C 79.242188 -1.125 77.097656 0 75.515625 0 C 68.515625 -0.226562 61.96875 -2.375 55.875 -6.4375 C 49.78125 -10.5 44.53125 -15.742188 40.125 -22.171875 C 35.726562 -28.609375 32.625 -35.550781 30.8125 -43 C 29.007812 -50.457031 28.726562 -57.738281 29.96875 -64.84375 C 31.207031 -71.957031 34.425781 -78.222656 39.625 -83.640625 L 16.9375 -65.6875 L -186.578125 95.828125 C -190.191406 98.765625 -191.828125 100.003906 -191.484375 99.546875 C -191.148438 99.097656 -189.628906 97.75 -186.921875 95.5 C -182.410156 91.65625 -177.78125 87.867188 -173.03125 84.140625 C -168.289062 80.421875 -163.664062 76.753906 -159.15625 73.140625 L -130.03125 50.109375 L 73.484375 -111.40625 C 75.515625 -112.757812 77.429688 -114.335938 79.234375 -116.140625 Z M 79.234375 -116.140625 "/></g></g></g><g fill="#ffffff" fill-opacity="1"><g transform="translate(327.33479, 497.796863)"><g><path d="M 70.765625 -56.21875 C 69.640625 -51.019531 67.328125 -46.445312 63.828125 -42.5 C 60.328125 -38.550781 56.316406 -34.878906 51.796875 -31.484375 C 47.285156 -28.097656 43.113281 -24.828125 39.28125 -21.671875 C 33.40625 -16.929688 27.535156 -12.242188 21.671875 -7.609375 C 15.804688 -2.984375 8.921875 -0.445312 1.015625 0 C -2.367188 0.226562 -5.8125 0.285156 -9.3125 0.171875 C -12.8125 0.0546875 -16.253906 0 -19.640625 0 C -19.191406 0 -18.234375 -0.734375 -16.765625 -2.203125 C -15.296875 -3.671875 -14.335938 -4.515625 -13.890625 -4.734375 C -11.628906 -6.546875 -9.367188 -8.410156 -7.109375 -10.328125 C -4.847656 -12.242188 -2.59375 -14.109375 -0.34375 -15.921875 C 1.007812 -17.046875 2.925781 -18.847656 5.40625 -21.328125 C 7.894531 -23.816406 10.492188 -26.1875 13.203125 -28.4375 C 15.910156 -30.695312 18.054688 -31.828125 19.640625 -31.828125 C 21.671875 -31.828125 23.757812 -31.769531 25.90625 -31.65625 C 28.050781 -31.539062 30.140625 -31.484375 32.171875 -31.484375 C 33.296875 -38.265625 33.578125 -45.265625 33.015625 -52.484375 C 32.453125 -59.710938 32.171875 -66.257812 32.171875 -72.125 L 32.171875 -133.078125 C 32.171875 -134.429688 33.582031 -136.238281 36.40625 -138.5 C 39.226562 -140.757812 42.273438 -142.957031 45.546875 -145.09375 C 48.816406 -147.238281 50.90625 -148.648438 51.8125 -149.328125 C 52.71875 -150.003906 54.75 -151.414062 57.90625 -153.5625 C 61.0625 -155.707031 64.109375 -157.910156 67.046875 -160.171875 C 69.984375 -162.429688 71.453125 -164.007812 71.453125 -164.90625 L 71.453125 -70.765625 C 71.671875 -68.515625 71.722656 -66.144531 71.609375 -63.65625 C 71.503906 -61.175781 71.222656 -58.695312 70.765625 -56.21875 Z M 87.03125 5.078125 C 88.15625 12.984375 87.082031 20.378906 83.8125 27.265625 C 80.539062 34.148438 75.96875 40.1875 70.09375 45.375 C 66.257812 48.757812 62.304688 52.085938 58.234375 55.359375 C 54.171875 58.640625 50.109375 61.859375 46.046875 65.015625 C 44.015625 66.597656 42.039062 68.175781 40.125 69.75 C 38.207031 71.332031 36.234375 72.914062 34.203125 74.5 C 34.648438 74.039062 34.535156 74.148438 33.859375 74.828125 C 33.179688 75.515625 32.5625 76.023438 32 76.359375 C 31.4375 76.703125 31.492188 76.535156 32.171875 75.859375 C 38.492188 70.660156 43.007812 64.222656 45.71875 56.546875 C 48.425781 48.867188 48.988281 41.082031 47.40625 33.1875 C 46.5 29.125 45.195312 25.113281 43.5 21.15625 C 41.8125 17.207031 40.066406 13.425781 38.265625 9.8125 C 38.265625 9.363281 39.785156 7.953125 42.828125 5.578125 C 45.878906 3.210938 49.039062 0.789062 52.3125 -1.6875 C 55.59375 -4.175781 57.457031 -5.644531 57.90625 -6.09375 C 58.351562 -6.539062 59.59375 -7.554688 61.625 -9.140625 C 63.65625 -10.722656 65.910156 -12.472656 68.390625 -14.390625 C 70.878906 -16.304688 73.023438 -18 74.828125 -19.46875 C 76.640625 -20.9375 77.546875 -21.785156 77.546875 -22.015625 C 79.347656 -17.722656 81.265625 -13.316406 83.296875 -8.796875 C 85.328125 -4.285156 86.570312 0.335938 87.03125 5.078125 Z M 87.03125 5.078125 "/></g></g></g><g fill="#ffffff" fill-opacity="1"><g transform="translate(421.811849, 497.796863)"><g><path d="M 46.046875 -71.109375 C 46.046875 -64.785156 46.835938 -58.6875 48.421875 -52.8125 C 50.003906 -46.945312 52.882812 -42.097656 57.0625 -38.265625 C 61.238281 -34.429688 67.164062 -32.285156 74.84375 -31.828125 C 74.382812 -31.828125 73.421875 -31.148438 71.953125 -29.796875 C 70.484375 -28.441406 69.523438 -27.539062 69.078125 -27.09375 C 66.816406 -25.28125 64.554688 -23.359375 62.296875 -21.328125 C 60.046875 -19.296875 57.679688 -17.378906 55.203125 -15.578125 C 54.066406 -14.671875 52.203125 -12.921875 49.609375 -10.328125 C 47.015625 -7.734375 44.363281 -5.363281 41.65625 -3.21875 C 38.945312 -1.070312 36.914062 0 35.5625 0 C 27.65625 -0.445312 21.613281 -2.644531 17.4375 -6.59375 C 13.257812 -10.550781 10.4375 -15.519531 8.96875 -21.5 C 7.5 -27.476562 6.765625 -33.628906 6.765625 -39.953125 L 6.765625 -207.578125 C 6.765625 -208.929688 8.175781 -210.679688 11 -212.828125 C 13.820312 -214.972656 16.867188 -217.117188 20.140625 -219.265625 C 23.421875 -221.410156 25.507812 -222.820312 26.40625 -223.5 C 27.3125 -224.175781 29.34375 -225.640625 32.5 -227.890625 C 35.664062 -230.148438 38.710938 -232.40625 41.640625 -234.65625 C 44.578125 -236.914062 46.046875 -238.5 46.046875 -239.40625 Z M 46.046875 -71.109375 "/></g></g></g><g fill="#ffffff" fill-opacity="1"><g transform="translate(477.008117, 497.796863)"><g><path d="M 265.484375 -159.15625 C 270.453125 -153.507812 273.441406 -147.128906 274.453125 -140.015625 C 275.472656 -132.910156 275.191406 -125.578125 273.609375 -118.015625 C 272.023438 -110.453125 269.539062 -103.226562 266.15625 -96.34375 C 262.769531 -89.457031 259.160156 -83.414062 255.328125 -78.21875 C 250.359375 -71.21875 244.539062 -65.007812 237.875 -59.59375 C 231.21875 -54.175781 224.617188 -48.757812 218.078125 -43.34375 C 205.660156 -32.726562 199.675781 -27.988281 200.125 -29.125 C 195.832031 -25.507812 191.257812 -22.234375 186.40625 -19.296875 C 181.550781 -16.367188 176.53125 -13.660156 171.34375 -11.171875 C 162.3125 -7.109375 152.429688 -4.003906 141.703125 -1.859375 C 130.984375 0.285156 120.316406 0.796875 109.703125 -0.328125 C 99.097656 -1.460938 89.28125 -4.738281 80.25 -10.15625 C 73.925781 -14.21875 68.394531 -19.632812 63.65625 -26.40625 L 48.421875 -12.875 C 44.585938 -9.476562 40.632812 -6.203125 36.5625 -3.046875 C 32.5 0.109375 28.4375 3.378906 24.375 6.765625 C 22.34375 8.347656 20.367188 9.929688 18.453125 11.515625 C 16.535156 13.097656 14.5625 14.566406 12.53125 15.921875 C 12.976562 15.691406 12.804688 15.859375 12.015625 16.421875 C 11.234375 16.984375 10.554688 17.488281 9.984375 17.9375 C 9.421875 18.394531 9.59375 18.285156 10.5 17.609375 L 62.640625 -28.109375 C 61.515625 -30.140625 60.441406 -32.226562 59.421875 -34.375 C 58.410156 -36.519531 57.566406 -38.71875 56.890625 -40.96875 C 49.210938 -34.425781 41.535156 -28.050781 33.859375 -21.84375 C 26.179688 -15.632812 18.050781 -10.5 9.46875 -6.4375 C 0.894531 -2.375 -8.804688 -0.226562 -19.640625 0 C -19.191406 0 -18.234375 -0.734375 -16.765625 -2.203125 C -15.296875 -3.671875 -14.335938 -4.515625 -13.890625 -4.734375 C -11.628906 -6.765625 -9.367188 -8.738281 -7.109375 -10.65625 C -4.847656 -12.582031 -2.59375 -14.445312 -0.34375 -16.25 C 1.007812 -17.382812 2.925781 -19.191406 5.40625 -21.671875 C 7.894531 -24.148438 10.492188 -26.460938 13.203125 -28.609375 C 15.910156 -30.753906 18.054688 -31.828125 19.640625 -31.828125 C 26.179688 -31.828125 32.503906 -32.503906 38.609375 -33.859375 C 42.671875 -41.535156 45.769531 -49.660156 47.90625 -58.234375 C 50.050781 -66.816406 51.804688 -75.285156 53.171875 -83.640625 C 53.171875 -83.867188 53.28125 -84.09375 53.5 -84.3125 C 54.175781 -84.988281 54.851562 -85.664062 55.53125 -86.34375 C 56.207031 -87.019531 57 -87.585938 57.90625 -88.046875 C 58.132812 -88.046875 58.300781 -88.097656 58.40625 -88.203125 C 58.519531 -88.316406 58.578125 -88.375 58.578125 -88.375 C 61.066406 -90.40625 63.4375 -92.378906 65.6875 -94.296875 C 67.945312 -96.222656 70.207031 -98.085938 72.46875 -99.890625 C 73.363281 -100.347656 74.039062 -100.800781 74.5 -101.25 C 76.976562 -103.050781 80.304688 -105.363281 84.484375 -108.1875 C 88.660156 -111.007812 91.203125 -113.210938 92.109375 -114.796875 C 92.109375 -115.015625 92.160156 -115.125 92.265625 -115.125 C 92.378906 -115.125 92.4375 -115.238281 92.4375 -115.46875 C 91.539062 -106.21875 91.65625 -96.90625 92.78125 -87.53125 C 93.90625 -78.164062 96.613281 -69.53125 100.90625 -61.625 L 182.515625 -133.078125 C 184.773438 -134.878906 186.976562 -136.738281 189.125 -138.65625 C 191.269531 -140.582031 193.46875 -142.445312 195.71875 -144.25 L 195.71875 -144.59375 L 197.75 -145.953125 C 199.78125 -147.753906 201.8125 -149.5 203.84375 -151.1875 C 205.882812 -152.882812 207.921875 -154.632812 209.953125 -156.4375 C 213.109375 -158.925781 216.320312 -161.46875 219.59375 -164.0625 C 222.875 -166.65625 226.09375 -169.195312 229.25 -171.6875 C 229.695312 -171.90625 230.597656 -172.691406 231.953125 -174.046875 C 233.304688 -175.398438 234.320312 -176.078125 235 -176.078125 C 236.132812 -176.078125 237.09375 -175.960938 237.875 -175.734375 C 238.664062 -175.515625 239.515625 -175.179688 240.421875 -174.734375 C 250.128906 -172.023438 258.484375 -166.832031 265.484375 -159.15625 Z M 225.53125 -61.625 C 229.132812 -68.625 231.894531 -76.242188 233.8125 -84.484375 C 235.738281 -92.722656 236.132812 -100.796875 235 -108.703125 C 233.644531 -117.953125 229.300781 -125.566406 221.96875 -131.546875 C 214.632812 -137.535156 206.675781 -141.660156 198.09375 -143.921875 L 101.921875 -59.9375 C 106.890625 -51.582031 114.003906 -44.921875 123.265625 -39.953125 C 132.515625 -35.210938 142.5 -32.445312 153.21875 -31.65625 C 163.945312 -30.863281 174.671875 -31.707031 185.390625 -34.1875 C 196.117188 -36.675781 206 -40.179688 215.03125 -44.703125 C 217.0625 -47.410156 218.921875 -50.175781 220.609375 -53 C 222.304688 -55.820312 223.945312 -58.695312 225.53125 -61.625 Z M 225.53125 -61.625 "/></g></g></g></svg>